<?xml version="1.0" standalone="no"?>
<svg xmlns:xlink="http://www.w3.org/1999/xlink" id="wave" style="transform:rotate(180deg); transition: 0.3s" viewBox="0 0 1440 100" version="1.1" xmlns="http://www.w3.org/2000/svg"><defs><linearGradient id="sw-gradient-0" x1="0" x2="0" y1="1" y2="0"><stop stop-color="rgba(190, 24, 28, 1)" offset="0%"/><stop stop-color="rgba(240, 76, 80, 1)" offset="100%"/></linearGradient></defs><path style="transform:translate(0, 0px); opacity:1" fill="url(#sw-gradient-0)" d="M0,90L17.1,86.7C34.3,83,69,77,103,65C137.1,53,171,37,206,31.7C240,27,274,33,309,43.3C342.9,53,377,67,411,71.7C445.7,77,480,73,514,71.7C548.6,70,583,70,617,70C651.4,70,686,70,720,60C754.3,50,789,30,823,30C857.1,30,891,50,926,48.3C960,47,994,23,1029,21.7C1062.9,20,1097,40,1131,48.3C1165.7,57,1200,53,1234,45C1268.6,37,1303,23,1337,16.7C1371.4,10,1406,10,1440,21.7C1474.3,33,1509,57,1543,60C1577.1,63,1611,47,1646,45C1680,43,1714,57,1749,55C1782.9,53,1817,37,1851,25C1885.7,13,1920,7,1954,16.7C1988.6,27,2023,53,2057,63.3C2091.4,73,2126,67,2160,68.3C2194.3,70,2229,80,2263,76.7C2297.1,73,2331,57,2366,48.3C2400,40,2434,40,2451,40L2468.6,40L2468.6,100L2451.4,100C2434.3,100,2400,100,2366,100C2331.4,100,2297,100,2263,100C2228.6,100,2194,100,2160,100C2125.7,100,2091,100,2057,100C2022.9,100,1989,100,1954,100C1920,100,1886,100,1851,100C1817.1,100,1783,100,1749,100C1714.3,100,1680,100,1646,100C1611.4,100,1577,100,1543,100C1508.6,100,1474,100,1440,100C1405.7,100,1371,100,1337,100C1302.9,100,1269,100,1234,100C1200,100,1166,100,1131,100C1097.1,100,1063,100,1029,100C994.3,100,960,100,926,100C891.4,100,857,100,823,100C788.6,100,754,100,720,100C685.7,100,651,100,617,100C582.9,100,549,100,514,100C480,100,446,100,411,100C377.1,100,343,100,309,100C274.3,100,240,100,206,100C171.4,100,137,100,103,100C68.6,100,34,100,17,100L0,100Z"/></svg>